<svg width="119" height="119" viewBox="0 0 119 119" fill="none" xmlns="http://www.w3.org/2000/svg">
<path d="M109.238 31.1445L109.517 30.9586C108.959 29.9359 108.123 29.0063 107.286 28.5414L62.382 2.6961C61.6383 2.23126 60.6156 2.04532 59.5 2.04532C58.3844 2.04532 57.3617 2.32422 56.618 2.6961L11.993 28.6344C10.4125 29.5641 9.29688 31.8883 9.29688 33.6547V85.4383C9.29688 86.4609 9.48281 87.5766 10.1336 88.5992L9.94766 88.6922C10.4125 89.436 11.0633 90.0867 11.7141 90.4586L56.525 116.397C57.2687 116.862 58.2914 117.048 59.407 117.048C60.5227 117.048 61.5453 116.769 62.2891 116.397L106.914 90.4586C108.495 89.5289 109.61 87.2047 109.61 85.4383V33.5617C109.703 32.818 109.61 31.9813 109.238 31.1445ZM76.2344 61.3594V57.6406H80.8828V52.9922H85.5312V57.6406H90.1797V61.3594H85.5312V66.0078H80.8828V61.3594H76.2344ZM79.3023 48.3438C75.3977 41.3711 67.9602 36.7227 59.5 36.7227C46.9492 36.7227 36.7227 46.9492 36.7227 59.5C36.7227 72.0508 46.9492 82.2774 59.5 82.2774C67.9602 82.2774 75.3977 77.6289 79.3023 70.7492L91.2953 77.8148C84.9734 88.7852 73.0734 96.2227 59.5 96.2227C39.2328 96.2227 22.7773 79.7672 22.7773 59.5C22.7773 39.2328 39.2328 22.7773 59.5 22.7773C73.1664 22.7773 85.0664 30.3078 91.3883 41.3711L79.3023 48.3438ZM106.914 61.3594H102.266V66.0078H98.5469V61.3594H92.9688V57.6406H98.5469V52.9922H102.266V57.6406H106.914V61.3594Z" fill="#9C033A"/>
</svg>
