<svg width="220" height="111" viewBox="0 0 220 111" fill="none" xmlns="http://www.w3.org/2000/svg">
<path d="M126.168 99.0741L117.528 2.1615H212.472L203.823 99.0595L164.942 109.839L126.168 99.0741Z" fill="#1572B6"/>
<path d="M165.001 101.6L196.419 92.8898L203.81 10.0855H165.001V101.6Z" fill="#33A9DC"/>
<path d="M165.001 45.1964H180.729L181.815 33.0251H165.001V21.1391H194.806L194.52 24.3282L191.598 57.0824H165.001V45.1964Z" fill="white"/>
<path d="M165.071 76.0653L165.019 76.0808L151.782 72.5067L150.935 63.0269H139.006L140.67 81.6899L165.017 88.4472L165.071 88.4317V76.0653Z" fill="#EBEBEB"/>
<path d="M179.718 56.5801L178.287 72.4974L165.03 76.0759V88.4423L189.397 81.6893L189.575 79.6809L191.643 56.5801H179.718Z" fill="white"/>
<path d="M165.041 21.1391V33.0251H136.331L136.093 30.3542L135.552 24.3282L135.267 21.1391H165.041ZM165.001 45.1981V57.0842H151.931L151.693 54.4132L151.15 48.3873L150.867 45.1981H165.001Z" fill="#EBEBEB"/>
<path d="M16.36 97.8622L7.76196 1.42743H102.238L93.6307 97.8476L54.9425 108.573L16.36 97.8622Z" fill="#E44D26"/>
<path d="M55 100.375L86.2623 91.7074L93.6177 9.31219H55V100.375Z" fill="#F16529"/>
<path d="M54.9999 45.0785H39.349L38.2679 32.9665H54.9999V21.1398H25.342L25.6256 24.3126L28.532 56.9061H54.9999V45.0785ZM54.9999 75.7952L54.9475 75.8098L41.7759 72.252L40.9345 62.8203H29.0606L30.7174 81.3906L54.9458 88.116L54.9999 88.1014V75.7952Z" fill="#EBEBEB"/>
<path d="M54.9587 45.0785V56.9061H69.5226L68.1501 72.2451L54.9587 75.8055V88.1109L79.206 81.3906L79.3839 79.3925L82.1631 48.2548L82.451 45.0785H79.2644H54.9587ZM54.9587 21.1398V32.9665H83.5278L83.765 30.3093L84.3047 24.3126L84.5874 21.1398H54.9587Z" fill="white"/>
</svg>
