<svg width="110" height="110" viewBox="0 0 110 110" fill="none" xmlns="http://www.w3.org/2000/svg">
<path d="M1.20996 1.21001H108.79V108.791H1.20996V1.21001Z" fill="#F0DB4F"/>
<path d="M99.9857 83.1325C99.1976 78.2246 95.9973 74.1022 86.5175 70.2582C83.2244 68.7448 79.5532 67.6612 78.4592 65.1655C78.0707 63.7132 78.0192 62.8951 78.2649 62.0159C78.9705 59.1628 82.3762 58.2734 85.0755 59.0915C86.814 59.6741 88.4597 61.0139 89.4523 63.1512C94.0946 60.1451 94.0852 60.1648 97.3267 58.0989C96.1399 56.259 95.5066 55.4099 94.7297 54.6227C91.9376 51.5041 88.1332 49.8979 82.0488 50.0208L78.8794 50.4307C75.8424 51.1981 72.948 52.7923 71.2507 54.9295C66.1581 60.708 67.6104 70.8211 73.8074 74.983C79.9124 79.5652 88.8808 80.6077 90.0264 84.8925C91.141 90.1381 86.1712 91.8363 81.2315 91.233C77.5912 90.4759 75.5665 88.6256 73.3777 85.2612C69.3489 87.5927 69.3489 87.5927 65.2067 89.9748C66.189 92.1224 67.2211 93.0944 68.8677 94.9549C76.6605 102.859 96.1614 102.471 99.6591 90.5068C99.8009 90.096 100.743 87.3563 99.9857 83.1325ZM59.6939 50.6541H49.6314L49.5902 76.6691C49.5902 82.2018 49.8764 87.2738 48.9766 88.8284C47.5045 91.8861 43.6897 91.5071 41.9512 90.9141C40.1817 90.0445 39.282 88.8078 38.2396 87.0598C37.9534 86.558 37.7385 86.1695 37.6664 86.1395L29.4851 91.1496C30.8455 93.9417 32.8496 96.3652 35.4165 97.9395C39.251 100.241 44.4047 100.946 49.7947 99.709C53.3027 98.6872 56.3294 96.5705 57.9141 93.3487C60.2052 89.1249 59.7136 84.0125 59.693 78.3578C59.7446 69.1324 59.6939 59.9087 59.6939 50.6541Z" fill="#323330"/>
</svg>
