<svg width="110" height="110" viewBox="0 0 110 110" fill="none" xmlns="http://www.w3.org/2000/svg">
<path d="M40.9207 84.3219C40.9207 84.3219 36.8241 86.7058 43.84 87.5102C52.341 88.4813 56.6851 88.342 66.0506 86.5717C66.0506 86.5717 68.5179 88.1143 71.9571 89.4515C50.9548 98.4491 24.4268 88.9299 40.9207 84.3219ZM38.3529 72.5785C38.3529 72.5785 33.757 75.9808 40.7789 76.7078C49.86 77.6454 57.0297 77.7219 69.4425 75.3328C69.4425 75.3328 71.1553 77.0731 73.8529 78.0235C48.4652 85.4485 20.1883 78.6079 38.3529 72.5785Z" fill="#0074BD"/>
<path d="M59.9861 52.6548C65.1638 58.6145 58.6282 63.9727 58.6282 63.9727C58.6282 63.9727 71.7672 57.1914 65.7344 48.6956C60.0978 40.7765 55.7768 36.8431 79.1707 23.2753C79.1707 23.2762 42.4488 32.4448 59.9861 52.6548Z" fill="#EA2D2E"/>
<path d="M87.762 93.0093C87.762 93.0093 90.7947 95.5101 84.4207 97.4428C72.3018 101.114 33.9702 102.221 23.3243 97.5898C19.4992 95.9243 26.675 93.6152 28.9326 93.1279C31.2864 92.6183 32.6305 92.7111 32.6305 92.7111C28.374 89.7145 5.1193 98.5978 20.8201 101.146C63.635 108.086 98.8659 98.0203 87.762 93.0093ZM42.8931 60.4089C42.8931 60.4089 23.3973 65.0401 35.9898 66.7236C41.3076 67.4352 51.9037 67.2719 61.7805 66.4435C69.85 65.7654 77.9479 64.3174 77.9479 64.3174C77.9479 64.3174 75.1051 65.5368 73.046 66.941C53.2443 72.1497 15.0004 69.7237 26.0116 64.399C35.3203 59.8967 42.8931 60.4089 42.8931 60.4089ZM77.8671 79.9571C97.9945 69.5011 88.6875 59.4524 82.1915 60.806C80.6034 61.1368 79.8909 61.4247 79.8909 61.4247C79.8909 61.4247 80.4822 60.4974 81.6097 60.0987C94.4599 55.5827 104.341 73.4216 77.4649 80.4874C77.4649 80.4856 77.7734 80.2063 77.8671 79.9571Z" fill="#0074BD"/>
<path d="M65.7344 1.36383C65.7344 1.36383 76.8788 12.5151 55.1615 29.657C37.7454 43.4122 51.1903 51.2531 55.1555 60.2155C44.9882 51.0434 37.5306 42.9679 42.533 35.4527C49.8789 24.4234 70.2298 19.0738 65.7344 1.36383Z" fill="#EA2D2E"/>
<path d="M44.8714 108.299C64.1868 109.534 93.8558 107.612 94.5579 98.4715C94.5579 98.4715 93.2078 101.936 78.5933 104.686C62.1054 107.79 41.7657 107.428 29.7061 105.437C29.7061 105.438 32.1768 107.483 44.8714 108.299Z" fill="#0074BD"/>
</svg>
