<svg width="119" height="119" viewBox="0 0 119 119" fill="none" xmlns="http://www.w3.org/2000/svg">
<path d="M117.448 31.6652C117.447 29.2202 117.201 26.7815 116.713 24.3857C116.225 21.9331 115.396 19.561 114.249 17.3387C113.051 15.1861 111.562 13.209 109.824 11.4631C108.032 9.7091 105.949 8.27803 103.67 7.23297C101.42 6.09848 99.0132 5.30573 96.5296 4.88086C94.0659 4.40672 91.3605 4.40672 88.8968 4.1743H28.1231C26.2274 4.20517 24.3358 4.36358 22.4613 4.64844C20.6012 4.86743 18.7803 5.34299 17.0506 6.06157C16.5578 6.29399 15.8234 6.53571 15.3306 6.76813C13.6942 7.64534 12.1386 8.66579 10.6822 9.8175C10.1895 10.2916 9.69674 10.5241 9.204 10.9889C7.3921 12.6695 5.89365 14.659 4.77869 16.8645C3.56111 19.0556 2.72783 21.4391 2.31502 23.9116C1.94865 26.3242 1.70352 28.7538 1.58057 31.191V87.3349C1.58133 89.7798 1.82738 92.2185 2.31502 94.6143C2.8029 97.0669 3.63219 99.439 4.77869 101.661C5.97686 103.814 7.46597 105.791 9.204 107.537C10.9966 109.291 13.0787 110.722 15.3585 111.767C17.6084 112.902 20.0149 113.694 22.4985 114.119C24.9622 114.593 27.6676 114.593 30.1313 114.826H88.9061C91.4666 114.824 94.0215 114.587 96.5388 114.119C99.0225 113.694 101.429 112.902 103.679 111.767C105.91 110.638 107.98 109.215 109.833 107.537C111.645 105.856 113.144 103.867 114.259 101.661C115.476 99.4702 116.31 97.0868 116.722 94.6143C117.089 92.2016 117.334 89.7721 117.457 87.3349V31.6652H117.448Z" fill="#F05138"/>
<path d="M79.0235 89.7148C68.6947 95.4138 54.4983 95.9995 40.2091 90.1518C29.0679 85.6313 19.542 77.8674 12.8669 67.8672C15.9691 70.2418 19.3581 72.2159 22.9541 73.7428C37.7082 80.3436 52.453 79.888 62.8376 73.7428C48.0556 62.9026 35.5048 48.8086 26.1522 37.2991C24.3065 35.354 22.6591 33.23 21.2341 30.9586C32.5391 40.8226 50.5193 53.2711 56.9155 56.7946C47.783 47.4372 39.3906 37.385 31.814 26.7285C44.4085 38.9677 58.2673 49.8347 73.1572 59.1467C73.8173 59.5 74.3286 59.7975 74.7376 60.0764C75.1741 59.0108 75.5497 57.9214 75.8626 56.8132C79.3117 44.8295 75.3698 31.2096 66.7609 19.9325C86.6934 31.4327 98.547 53.0387 93.5824 71.1304C93.4523 71.6231 93.3128 72.0601 93.164 72.5714L93.3407 72.7759C103.186 84.5179 100.481 96.9478 99.2442 94.6236C93.8985 84.6015 84.0159 87.6974 79.0235 89.7148Z" fill="#FEFEFE"/>
</svg>
