<svg xmlns="http://www.w3.org/2000/svg" width="38" height="41" viewBox="0 0 38 41" fill="none">
  <path d="M1.5 12.6179C0.809644 11.4222 1.21933 9.89324 2.41506 9.20288L15.8385 1.45288C17.0342 0.762525 18.5632 1.17221 19.2535 2.36794L31.7535 24.0186C32.4439 25.2143 32.0342 26.7433 30.8385 27.4336L17.4151 35.1836C16.2193 35.874 14.6904 35.4643 14 34.2686L1.5 12.6179Z" fill="#E8E8E8"/>
  <path d="M7.2408 8.89711C6.88344 7.56345 7.6749 6.19261 9.00856 5.83525L23.9804 1.82356C25.3141 1.4662 26.6849 2.25766 27.0423 3.59132L33.5128 27.7395C33.8701 29.0731 33.0787 30.444 31.745 30.8013L16.7731 34.813C15.4395 35.1704 14.0686 34.3789 13.7113 33.0453L7.2408 8.89711Z" fill="#56CCF2"/>
  <path d="M13.8767 6.31824C13.8767 4.93752 14.996 3.81824 16.3767 3.81824H31.8767C33.2574 3.81824 34.3767 4.93753 34.3767 6.31824V31.3182C34.3767 32.6989 33.2574 33.8182 31.8767 33.8182H16.3767C14.996 33.8182 13.8767 32.6989 13.8767 31.3182V6.31824Z" fill="#FDE69A"/>
  <path d="M23.8767 16.8182C23.8767 15.7137 24.7722 14.8182 25.8767 14.8182C26.9813 14.8182 27.8767 15.7137 27.8767 16.8182V23.8182H35.3767C36.7574 23.8182 37.8767 24.9375 37.8767 26.3182V37.5682C37.8767 38.9489 36.7574 40.0682 35.3767 40.0682H27.1267V39.998C25.8257 39.7512 24.7477 38.8743 24.2221 37.6967L17.714 28.7267C17.3897 28.2796 17.4891 27.6543 17.9361 27.33L18.3408 27.0364C19.4584 26.2255 21.0216 26.4742 21.8325 27.5917L23.8767 30.4093V16.8182Z" fill="#6B63DD"/>
</svg>