<svg xmlns="http://www.w3.org/2000/svg" width="37" height="37" viewBox="0 0 37 37" fill="none">
  <path d="M5 12.5C5 8.35786 8.35786 5 12.5 5H29.5C33.6421 5 37 8.35786 37 12.5V29.5C37 33.6421 33.6421 37 29.5 37H12.5C8.35786 37 5 33.6421 5 29.5V12.5Z" fill="#E8E8E8"/>
  <path d="M2.5 10C2.5 5.85786 5.85786 2.5 10 2.5H27C31.1421 2.5 34.5 5.85786 34.5 10V27C34.5 31.1421 31.1421 34.5 27 34.5H10C5.85786 34.5 2.5 31.1421 2.5 27V10Z" fill="#D9D9D9"/>
  <path d="M0 7.5C0 3.35786 3.35786 0 7.5 0H24.5C28.6421 0 32 3.35786 32 7.5V24.5C32 28.6421 28.6421 32 24.5 32H7.5C3.35786 32 0 28.6421 0 24.5V7.5Z" fill="#FDE69A"/>
  <path d="M11.7851 12.282C12.4931 11.4342 12.3798 10.1729 11.532 9.46493C10.6841 8.75693 9.42289 8.87027 8.71488 9.71809L4.46488 14.8074C3.8365 15.5598 3.84617 16.6569 4.48771 17.3981L8.73772 22.3089C9.46055 23.1441 10.7236 23.2352 11.5588 22.5123C12.394 21.7895 12.4851 20.5264 11.7623 19.6912L8.62498 16.0662L11.7851 12.282Z" fill="#6B63DD"/>
  <path d="M20.2149 12.282C19.5069 11.4342 19.6202 10.1729 20.468 9.46493C21.3159 8.75693 22.5771 8.87027 23.2851 9.71809L27.5351 14.8074C28.1635 15.5598 28.1538 16.6569 27.5123 17.3981L23.2623 22.3089C22.5394 23.1441 21.2764 23.2352 20.4412 22.5123C19.606 21.7895 19.5149 20.5264 20.2377 19.6912L23.375 16.0662L20.2149 12.282Z" fill="#6B63DD"/>
</svg>